<svg width="512" height="512" viewBox="0 0 512 512" fill="none" xmlns="http://www.w3.org/2000/svg">
<rect width="512" height="512" rx="100" fill="#00BC7D"/>
<path d="M256 348.75V410.917" stroke="white" stroke-width="29" stroke-linecap="round" stroke-linejoin="round"/>
<path d="M106 294.339C106.003 311.632 111.069 328.518 120.528 342.766C129.988 357.014 143.395 367.954 158.981 374.142C174.567 380.329 191.597 381.474 207.824 377.423C224.05 373.372 238.709 364.318 249.865 351.454C251.533 349.848 253.726 348.957 256.003 348.96C258.28 348.963 260.471 349.86 262.135 351.47C273.291 364.333 287.95 373.388 304.176 377.438C320.403 381.489 337.433 380.345 353.019 374.157C368.605 367.97 382.012 357.029 391.472 342.781C400.931 328.533 405.997 311.648 406 294.354C406 258.764 383.5 232.188 361 208.875L278.62 126.318C275.826 122.991 272.381 120.318 268.513 118.477C264.646 116.635 260.444 115.668 256.188 115.638C251.931 115.609 247.718 116.518 243.827 118.306C239.936 120.094 236.456 122.719 233.62 126.007L151 208.86C128.5 232.172 106 258.593 106 294.339Z" fill="white" stroke="white" stroke-width="29" stroke-linecap="round" stroke-linejoin="round"/>
</svg>
